<?xml version="1.0" encoding="utf-8"?>
<!-- Svg Vector Icons : http://www.onlinewebfonts.com/icon -->
<!DOCTYPE svg PUBLIC "-//W3C//DTD SVG 1.1//EN" "http://www.w3.org/Graphics/SVG/1.1/DTD/svg11.dtd">
<svg version="1.1" xmlns="http://www.w3.org/2000/svg" xmlns:xlink="http://www.w3.org/1999/xlink" x="0px" y="0px" viewBox="0 0 1000 1000" enable-background="new 0 0 1000 1000" xml:space="preserve">
<metadata> Svg Vector Icons : http://www.onlinewebfonts.com/icon </metadata>
<g><path d="M430,563h112l28-126H458L430,563z"/><path d="M920,10H80c-35,0-70,35-70,70v840c0,42,35,70,70,70h840c42,0,70-28,70-70V80C990,45,962,10,920,10z M738,437H626l-28,126h119l-7,56H591l-35,175h-63l35-175H423l-35,175h-63l35-175H248l7-49h112l28-133H283l7-49h119l35-175h56l-28,175h112l35-175h56l-35,175h112L738,437z"/></g>
</svg>